HIERARCHY
ROOT Hips
{
	OFFSET 0.00000 0.00000 0.00000
	CHANNELS 6 Xposition Yposition Zposition Zrotation Yrotation Xrotation 
	JOINT LHipJoint
	{
		OFFSET 0 0 0
		CHANNELS 3 Zrotation Yrotation Xrotation
		JOINT LeftUpLeg
		{
			OFFSET 1.65674 -1.80282 0.62477
			CHANNELS 3 Zrotation Yrotation Xrotation
			JOINT LeftLeg
			{
				OFFSET 2.59720 -7.13576 0.00000
				CHANNELS 3 Zrotation Yrotation Xrotation
				JOINT LeftFoot
				{
					OFFSET 2.49236 -6.84770 0.00000
					CHANNELS 3 Zrotation Yrotation Xrotation
					JOINT LeftToeBase
					{
						OFFSET 0.19704 -0.54136 2.14581
						CHANNELS 3 Zrotation Yrotation Xrotation
						End Site
						{
							OFFSET 0.00000 -0.00000 1.11249
						}
					}
				}
			}
		}
	}
	JOINT RHipJoint
	{
		OFFSET 0 0 0
		CHANNELS 3 Zrotation Yrotation Xrotation
		JOINT RightUpLeg
		{
			OFFSET -1.61070 -1.80282 0.62476
			CHANNELS 3 Zrotation Yrotation Xrotation
			JOINT RightLeg
			{
				OFFSET -2.59502 -7.12977 0.00000
				CHANNELS 3 Zrotation Yrotation Xrotation
				JOINT RightFoot
				{
					OFFSET -2.46780 -6.78024 0.00000
					CHANNELS 3 Zrotation Yrotation Xrotation
					JOINT RightToeBase
					{
						OFFSET -0.23024 -0.63258 2.13368
						CHANNELS 3 Zrotation Yrotation Xrotation
						End Site
						{
							OFFSET -0.00000 -0.00000 1.11569
						}
					}
				}
			}
		}
	}
	JOINT LowerBack
	{
		OFFSET 0 0 0
		CHANNELS 3 Zrotation Yrotation Xrotation
		JOINT Spine
		{
			OFFSET 0.01961 2.05450 -0.14112
			CHANNELS 3 Zrotation Yrotation Xrotation
			JOINT Spine1
			{
				OFFSET 0.01021 2.06436 -0.05921
				CHANNELS 3 Zrotation Yrotation Xrotation
				JOINT Neck
				{
					OFFSET 0 0 0
					CHANNELS 3 Zrotation Yrotation Xrotation
					JOINT Neck1
					{
						OFFSET 0.00713 1.56711 0.14968
						CHANNELS 3 Zrotation Yrotation Xrotation
						JOINT Head
						{
							OFFSET 0.03429 1.56041 -0.10006
							CHANNELS 3 Zrotation Yrotation Xrotation
							End Site
							{
								OFFSET 0.01305 1.62560 -0.05265
							}
						}
					}
				}
				JOINT LeftShoulder
				{
					OFFSET 0 0 0
					CHANNELS 3 Zrotation Yrotation Xrotation
					JOINT LeftArm
					{
						OFFSET 3.54205 0.90436 -0.17364
						CHANNELS 3 Zrotation Yrotation Xrotation
						JOINT LeftForeArm
						{
							OFFSET 4.86513 -0.00000 -0.00000
							CHANNELS 3 Zrotation Yrotation Xrotation
							JOINT LeftHand
							{
								OFFSET 3.35554 -0.00000 0.00000
								CHANNELS 3 Zrotation Yrotation Xrotation
								JOINT LeftFingerBase
								{
									OFFSET 0 0 0
									CHANNELS 3 Zrotation Yrotation Xrotation
									JOINT LeftHandIndex1
									{
										OFFSET 0.66117 -0.00000 0.00000
										CHANNELS 3 Zrotation Yrotation Xrotation
										End Site
										{
											OFFSET 0.53306 -0.00000 0.00000
										}
									}
								}
								JOINT LThumb
								{
									OFFSET 0 0 0
									CHANNELS 3 Zrotation Yrotation Xrotation
									End Site
									{
										OFFSET 0.54120 -0.00000 0.54120
									}
								}
							}
						}
					}
				}
				JOINT RightShoulder
				{
					OFFSET 0 0 0
					CHANNELS 3 Zrotation Yrotation Xrotation
					JOINT RightArm
					{
						OFFSET -3.49802 0.75994 -0.32616
						CHANNELS 3 Zrotation Yrotation Xrotation
						JOINT RightForeArm
						{
							OFFSET -5.02649 -0.00000 0.00000
							CHANNELS 3 Zrotation Yrotation Xrotation
							JOINT RightHand
							{
								OFFSET -3.36431 -0.00000 0.00000
								CHANNELS 3 Zrotation Yrotation Xrotation
								JOINT RightFingerBase
								{
									OFFSET 0 0 0
									CHANNELS 3 Zrotation Yrotation Xrotation
									JOINT RightHandIndex1
									{
										OFFSET -0.73041 -0.00000 0.00000
										CHANNELS 3 Zrotation Yrotation Xrotation
										End Site
										{
											OFFSET -0.58887 -0.00000 0.00000
										}
									}
								}
								JOINT RThumb
								{
									OFFSET 0 0 0
									CHANNELS 3 Zrotation Yrotation Xrotation
									End Site
									{
										OFFSET -0.59786 -0.00000 0.59786
									}
								}
							}
						}
					}
				}
			}
		}
	}
}
MOTION
Frames: 11
Frame Time: .0083333
10.403700 16.674900 -29.731900 -2.679100 -10.110400 -2.736800 0.000000 0.000000 0.000000 -18.918700 -9.896900 -25.937700 1.437500 7.580300 21.446400 0.237400 8.718000 -16.140500 0.232800 -3.105700 -8.573200 0.000000 0.000000 0.000000 28.442600 -4.048800 17.373100 -0.377700 -3.947100 10.927900 -0.647700 6.465700 -14.383200 -0.002400 -0.315400 0.866500 5.931600 1.749200 7.315200 1.615400 2.689100 3.968500 -1.837300 1.414500 0.211000 1.069500 4.141900 -13.118800 -6.252200 5.669800 1.081900 -1.869600 2.582000 2.902200 -0.000000 0.000000 0.000000 -97.321000 11.066600 -11.609600 10.330300 -17.254500 -1.571500 -0.000000 0.000000 -11.613400 23.438000 20.740100 8.728100 -7.125000 0.000000 -0.000000 -5.284600 52.330900 -0.955800 -0.000000 0.000000 0.000000 79.177800 21.287200 39.108500 -27.094100 38.268800 -9.557400 0.000000 -0.000000 -16.226200 -26.653200 16.452800 -8.090800 7.125000 -0.000000 -0.000000 0.755600 -11.695900 0.586800
10.395100 16.669600 -29.540000 -2.430100 -10.191400 -2.652900 0.000000 0.000000 0.000000 -19.497700 -9.509100 -26.102700 1.506900 7.753200 21.966800 0.215300 8.493400 -15.590600 0.347800 -3.789100 -10.484100 0.000000 0.000000 0.000000 28.005200 -4.158500 17.868600 -0.386900 -3.994300 11.060500 -0.612200 6.540100 -14.001400 -0.000400 -0.135600 0.372600 5.743700 1.823700 7.193600 1.449700 2.774200 3.818900 -1.908000 1.451500 0.127600 1.318800 4.129900 -12.917800 -6.090700 5.585200 0.706100 -1.869400 2.558900 2.734400 0.000000 0.000000 0.000000 -97.168600 11.065700 -11.789100 10.212700 -17.071700 -1.536800 -0.000000 0.000000 -11.113700 23.414500 20.074300 8.454300 -7.125000 0.000000 -0.000000 -5.115900 51.623200 -0.836300 0.000000 0.000000 0.000000 79.402300 21.128000 39.103600 -26.805300 37.992900 -9.379000 0.000000 -0.000000 -16.082700 -27.044200 16.653700 -8.323400 7.125000 -0.000000 -0.000000 0.516400 -11.415400 0.404000
10.384100 16.648800 -29.344700 -2.468900 -10.352600 -2.507600 0.000000 0.000000 0.000000 -19.677100 -9.294900 -26.188600 1.622800 8.031700 22.810400 0.209600 8.183600 -15.168300 0.395900 -4.040200 -11.189800 0.000000 0.000000 0.000000 27.872200 -4.294500 18.149000 -0.420900 -4.164000 11.538600 -0.573700 6.700800 -13.589000 -0.001000 0.204400 -0.561600 5.719000 1.857100 6.930800 1.407000 2.803400 3.706000 -1.932300 1.465200 0.158900 1.546000 4.173800 -12.709500 -5.989800 5.587400 0.389000 -1.879700 2.574400 2.591500 -0.000000 -0.000000 0.000000 -97.138300 11.070400 -11.717800 10.206000 -17.061200 -1.534800 -0.000000 0.000000 -11.374700 23.342300 20.013500 8.401400 -7.125000 0.000000 -0.000000 -5.171200 51.546300 -0.835600 -0.000000 -0.000000 0.000000 79.659800 20.955200 39.337200 -26.587600 37.783100 -9.245300 0.000000 -0.000000 -16.002500 -27.229500 16.498600 -8.314100 7.125000 -0.000000 -0.000000 0.378600 -11.557200 0.295000
10.373600 16.615300 -29.148700 -2.741900 -10.456700 -2.278300 0.000000 0.000000 0.000000 -19.535400 -9.413400 -26.212100 1.769000 8.367500 23.835900 0.203800 7.979000 -14.858600 0.313800 -3.601200 -9.957300 0.000000 0.000000 0.000000 27.998400 -4.451800 18.357400 -0.462400 -4.362000 12.097400 -0.561500 6.928000 -13.478800 -0.019900 0.911200 -2.504500 5.832700 1.898800 6.393900 1.523500 2.826300 3.708200 -1.854400 1.484900 0.460700 1.463900 4.164400 -12.636300 -5.765100 5.561900 0.109700 -1.793700 2.575200 2.468900 -0.000000 -0.000000 0.000000 -97.261900 10.913500 -11.710900 10.178500 -17.018300 -1.526800 -0.000000 0.000000 -11.408400 23.237700 20.307000 8.475600 -7.125000 0.000000 -0.000000 -5.359800 51.837700 -0.904600 -0.000000 -0.000000 0.000000 79.734500 20.907000 39.398000 -26.330100 37.532800 -9.088000 0.000000 -0.000000 -16.020800 -27.379200 16.335900 -8.287800 7.125000 -0.000000 -0.000000 0.263200 -11.713100 0.204300
10.359900 16.571500 -28.953400 -2.592300 -10.361900 -2.259900 0.000000 0.000000 0.000000 -19.894300 -9.502400 -26.229300 1.938100 8.736000 24.972900 0.129200 8.217700 -14.000700 0.295500 -3.495500 -9.661600 0.000000 0.000000 0.000000 27.777100 -4.573600 18.890900 -0.491300 -4.494100 12.471100 -0.581800 6.903700 -13.702600 -0.092300 1.959900 -5.394700 5.455400 1.877700 6.057800 1.555700 2.755100 3.722400 -1.594300 1.447800 0.634700 1.236400 4.159900 -12.577700 -5.383000 5.555000 -0.237400 -1.629500 2.590700 2.315300 -0.000000 0.000000 0.000000 -97.431400 10.791200 -11.829100 10.196400 -17.046300 -1.532000 -0.000000 0.000000 -11.148800 22.987300 20.398400 8.410700 -7.125000 0.000000 -0.000000 -5.638000 51.889600 -0.959000 -0.000000 0.000000 0.000000 79.726300 20.856300 39.446100 -26.005100 37.213700 -8.890700 0.000000 -0.000000 -16.269700 -27.271400 16.296900 -8.231200 7.125000 -0.000000 -0.000000 0.330900 -11.772800 0.256400
10.345800 16.564300 -28.754200 -2.442900 -10.271300 -2.360000 0.000000 0.000000 0.000000 -20.193800 -9.628100 -26.183800 2.136300 9.144400 26.248100 0.007400 9.177100 -13.208000 0.350500 -3.803700 -10.525200 0.000000 0.000000 0.000000 27.558500 -4.679500 19.292400 -0.547200 -4.739000 13.165600 -0.572500 6.740700 -13.579400 -0.226800 3.065100 -8.460000 4.978900 1.793400 5.944500 1.657800 2.612400 3.736900 -1.213700 1.368700 0.673900 0.871200 4.238400 -12.663900 -4.988200 5.683200 -0.503800 -1.427800 2.669600 2.214700 0.000000 0.000000 0.000000 -97.698000 10.669500 -11.856200 10.223900 -17.089000 -1.540100 -0.000000 0.000000 -11.135000 22.939300 20.556500 8.452700 -7.125000 0.000000 -0.000000 -5.733300 52.047500 -0.997500 0.000000 0.000000 0.000000 79.647600 20.817300 39.763200 -25.581100 36.792100 -8.635600 0.000000 -0.000000 -16.542500 -27.044300 16.287600 -8.147900 7.125000 -0.000000 -0.000000 0.480500 -11.817800 0.371900
10.334300 16.575300 -28.550300 -2.540900 -10.258100 -2.285900 0.000000 0.000000 0.000000 -20.117300 -9.932300 -26.243700 2.353600 9.566700 27.584600 -0.100500 10.382800 -13.075100 0.324100 -3.659100 -10.119500 0.000000 0.000000 0.000000 27.513700 -4.794000 19.510600 -0.602000 -4.966800 13.813900 -0.504200 6.602900 -12.772600 -0.391100 4.015800 -11.121200 5.111100 1.733500 5.872000 1.520800 2.542000 3.564300 -1.426300 1.332000 0.544200 0.757100 4.286700 -12.838900 -4.303500 5.736200 -0.501300 -1.179200 2.715500 2.216300 -0.000000 -0.000000 0.000000 -97.382900 10.690100 -11.475100 10.170700 -17.006200 -1.524500 -0.000000 0.000000 -11.395800 23.326300 20.934200 8.758700 -7.125000 0.000000 -0.000000 -5.455700 52.515200 -1.011500 -0.000000 -0.000000 0.000000 80.256900 20.454000 39.877300 -25.044900 36.249800 -8.316400 0.000000 -0.000000 -16.274400 -27.020900 16.699500 -8.337100 7.125000 -0.000000 -0.000000 0.536300 -11.368600 0.420100
10.323000 16.536600 -28.352300 -2.467900 -10.209800 -2.234000 0.000000 0.000000 0.000000 -20.174900 -10.332400 -26.368300 2.564300 9.953800 28.827400 -0.177600 11.232300 -13.058000 0.182000 -2.748100 -7.578100 0.000000 0.000000 0.000000 27.320700 -4.899000 19.764700 -0.680400 -5.274000 14.691800 -0.468600 6.510100 -12.330300 -0.636400 5.104000 -14.205400 4.994600 1.739300 5.654200 1.410800 2.535600 3.450400 -1.469000 1.326800 0.546200 0.659100 4.244200 -12.567000 -3.825400 5.659200 -0.942800 -1.021200 2.701800 1.994100 -0.000000 -0.000000 0.000000 -97.163300 10.554900 -11.282200 10.059300 -16.832300 -1.492100 -0.000000 0.000000 -11.206200 23.620400 21.087300 8.941700 -7.125000 0.000000 -0.000000 -5.203200 52.730800 -0.992000 -0.000000 -0.000000 0.000000 80.725400 20.010400 39.753400 -24.570600 35.761800 -8.037600 0.000000 -0.000000 -15.952300 -27.125000 17.058200 -8.546100 7.125000 -0.000000 -0.000000 0.503700 -10.958100 0.398800
10.311300 16.499700 -28.161200 -2.384300 -10.152200 -2.389000 0.000000 0.000000 0.000000 -20.304500 -10.384200 -26.379200 2.782200 10.333900 30.064900 -0.189200 11.272600 -12.903700 0.030500 -1.126700 -3.097600 0.000000 0.000000 0.000000 27.108600 -5.253700 20.077800 -0.808100 -5.736700 16.022400 -0.467200 6.292400 -12.284700 -1.114200 6.706000 -18.847200 4.859800 1.741000 5.692500 1.325000 2.534600 3.443600 -1.483800 1.324600 0.515300 0.693800 4.200400 -12.418800 -3.714500 5.576100 -1.415400 -1.003300 2.671400 1.804700 0.000000 0.000000 0.000000 -96.973100 10.209900 -11.706700 9.863200 -16.525400 -1.435800 -0.000000 0.000000 -10.184300 23.350000 20.751600 8.696500 -7.125000 0.000000 -0.000000 -5.377000 52.326900 -0.972100 0.000000 0.000000 0.000000 81.111700 19.630400 39.595600 -24.099800 35.269600 -7.764100 0.000000 -0.000000 -15.703800 -27.290700 17.036300 -8.595500 7.125000 -0.000000 -0.000000 0.392500 -10.955800 0.310700
10.296000 16.522500 -27.972300 -2.620400 -10.063700 -2.456800 0.000000 0.000000 0.000000 -20.156500 -10.073100 -26.309800 2.976000 10.656200 31.128800 -0.151400 10.681500 -12.598000 0.003300 0.372100 1.022500 0.000000 0.000000 0.000000 27.396400 -4.793000 19.441300 -1.029100 -6.452700 18.103800 -0.367300 6.363100 -11.005900 -0.853600 5.892400 -16.472500 4.960800 1.733100 5.773100 1.368500 2.535300 3.410100 -1.499200 1.323800 0.438800 0.795300 4.129900 -12.577600 -3.670600 5.462800 -1.525900 -1.011100 2.615500 1.795600 -0.000000 -0.000000 0.000000 -96.791200 9.786500 -12.155200 9.666700 -16.216600 -1.380400 -0.000000 0.000000 -8.891700 22.824200 20.410200 8.349700 -7.125000 0.000000 -0.000000 -5.805300 51.873100 -0.985200 -0.000000 -0.000000 0.000000 81.523300 19.271800 39.267800 -23.473500 34.602500 -7.405400 0.000000 -0.000000 -15.293900 -27.503500 17.070800 -8.689700 7.125000 -0.000000 -0.000000 0.256000 -10.883500 0.203100
10.281200 16.533200 -27.789400 -2.700500 -9.806700 -2.338600 0.000000 0.000000 0.000000 -20.210100 -9.921700 -26.327000 3.130400 10.903200 31.954000 -0.109700 9.915300 -12.125200 0.029800 1.114600 3.064200 0.000000 0.000000 0.000000 27.455000 -4.549100 18.473500 -1.318100 -7.271500 20.522300 -0.284500 6.371600 -9.838500 -0.993200 6.342800 -17.782300 4.878800 1.653700 5.607100 1.391500 2.418100 3.357700 -1.419900 1.263800 0.464700 0.450800 4.062400 -12.773900 -3.098100 5.400400 -1.676300 -0.771100 2.601400 1.746300 0.000000 0.000000 0.000000 -96.684800 9.391700 -11.840400 9.643700 -16.180300 -1.374000 -0.000000 0.000000 -8.433600 22.826000 20.977300 8.568800 -7.125000 0.000000 -0.000000 -5.975700 52.469200 -1.101800 0.000000 0.000000 0.000000 81.957700 19.006000 38.855600 -22.786400 33.854400 -7.019000 0.000000 -0.000000 -14.697100 -27.552400 17.177200 -8.759300 7.125000 -0.000000 -0.000000 0.235100 -10.758400 0.187100
